<svg xmlns="http://www.w3.org/2000/svg" width="165.751" height="48.213" viewBox="0 0 165.751 48.213">
  <g id="brand" transform="translate(-415.157 -12)">
    <path id="Path_431" data-name="Path 431" d="M4.13-2.323H7.684V-12.778h3.554v-2.975H.576v2.975H4.13Zm7.976,0H15.66V-8.067A2.373,2.373,0,0,1,17.809-9.8a4.878,4.878,0,0,1,1.157.165l.579-3.058a3.071,3.071,0,0,0-1.281-.207,3.465,3.465,0,0,0-2.934,2.025h-.083L15-12.654H12.106Zm13.017.248a5.118,5.118,0,0,0,5.124-5.414A5.118,5.118,0,0,0,25.123-12.9,5.118,5.118,0,0,0,20-7.489,5.118,5.118,0,0,0,25.123-2.075Zm0-2.851c-1.074,0-1.488-.992-1.488-2.562s.413-2.562,1.488-2.562,1.488.992,1.488,2.562S26.2-4.926,25.123-4.926Zm9.215,2.6H38.43l3.265-10.331H38.306L37.19-8.15q-.372,1.55-.744,3.223h-.083Q35.992-6.6,35.62-8.15l-1.116-4.5H30.95Zm11.075.248a4.19,4.19,0,0,0,2.851-1.24h.083l.248.992h2.893V-8.067c0-3.389-1.612-4.835-4.3-4.835a8.707,8.707,0,0,0-4.546,1.364l1.24,2.314a5.632,5.632,0,0,1,2.6-.868c.909,0,1.364.331,1.446,1.074-3.967.413-5.62,1.612-5.62,3.761A3.037,3.037,0,0,0,45.414-2.075ZM46.653-4.8c-.62,0-.95-.269-.95-.744,0-.579.537-1.116,2.232-1.364V-5.5A1.628,1.628,0,0,1,46.653-4.8ZM56.985-2.075a4.4,4.4,0,0,0,1.736-.289l-.413-2.6a1.275,1.275,0,0,1-.372.041c-.248,0-.579-.207-.579-.909V-16.7H53.8V-5.959C53.8-3.645,54.588-2.075,56.985-2.075ZM67.647-9.142c.372-1.343.723-2.913,1.054-4.339h.083c.351,1.405.723,3,1.1,4.339l.31,1.24H67.316ZM62.77-2.323h3.1l.826-3.2h4.112l.826,3.2h3.223L70.643-15.795H66.985Zm16.964,4.36c3.513,0,5.724-1.55,5.724-3.678,0-1.839-1.384-2.6-3.905-2.6H79.9c-1.136,0-1.55-.248-1.55-.765a.87.87,0,0,1,.372-.765,4.087,4.087,0,0,0,1.24.207c2.252,0,4.029-1.1,4.029-3.451a2.735,2.735,0,0,0-.331-1.343h1.632v-2.211h-3.74a4.762,4.762,0,0,0-1.591-.248c-2.211,0-4.236,1.24-4.236,3.7A3.281,3.281,0,0,0,77.11-6.455v.083a2.476,2.476,0,0,0-1.157,1.922,1.966,1.966,0,0,0,.95,1.736v.083A2.407,2.407,0,0,0,75.436-.567C75.436,1.252,77.337,2.037,79.734,2.037Zm.227-9.443c-.806,0-1.405-.579-1.405-1.715,0-1.1.6-1.653,1.405-1.653s1.405.579,1.405,1.653C81.367-7.984,80.767-7.406,79.961-7.406ZM80.209.136c-1.364,0-2.273-.413-2.273-1.178a1.343,1.343,0,0,1,.558-1.012,5.962,5.962,0,0,0,1.446.124h1.054c1.012,0,1.57.165,1.57.806C82.565-.422,81.573.136,80.209.136ZM91.326-2.075a6.7,6.7,0,0,0,3.637-1.157L93.95-5.071a4.128,4.128,0,0,1-2.211.682,2.479,2.479,0,0,1-2.665-2.17H95.21A6.714,6.714,0,0,0,95.334-7.9c0-2.789-1.446-4.918-4.36-4.918A5.034,5.034,0,0,0,86.14-7.447,5,5,0,0,0,91.326-2.075ZM89.053-8.563a2.029,2.029,0,0,1,1.984-1.942c1.219,0,1.715.806,1.715,1.942Zm8.389,6.24h3.037V-9.245a2.593,2.593,0,0,1,1.9-.992c.868,0,1.26.455,1.26,1.942v5.971h3.037V-8.687c0-2.562-.95-4.133-3.182-4.133a4.723,4.723,0,0,0-3.285,1.55h-.083l-.207-1.3h-2.48Zm16.282.248a5.118,5.118,0,0,0,3.389-1.219l-1.2-1.984a3.133,3.133,0,0,1-1.839.744c-1.322,0-2.294-1.136-2.294-2.913s.93-2.913,2.4-2.913a2.1,2.1,0,0,1,1.384.6l1.426-1.963a4.525,4.525,0,0,0-3-1.1,5.151,5.151,0,0,0-5.331,5.372C108.662-4.038,110.873-2.075,113.724-2.075Zm6.323,3.761c2.418,0,3.513-1.322,4.484-3.905l3.554-10.352h-2.913l-1.24,4.4c-.248.971-.475,1.942-.7,2.913h-.083c-.269-1.012-.517-1.984-.806-2.913l-1.467-4.4h-3.058l3.947,9.98-.145.537a1.742,1.742,0,0,1-1.8,1.343,3.337,3.337,0,0,1-.682-.124L118.6,1.479A4.669,4.669,0,0,0,120.047,1.686Z" transform="translate(452.823 44.456)"/>
    <g id="Group_201" data-name="Group 201" transform="translate(415.157 12)">
      <g id="Group_200" data-name="Group 200" transform="translate(9.182 9.621)">
        <path id="Path_403" data-name="Path 403" d="M478.58,770.124a12.132,12.132,0,0,0,2.456.344l-.028,2.461-2.882-.032A11.1,11.1,0,0,1,478.58,770.124Z" transform="translate(-474.604 -766.691)" fill="#f47008"/>
        <path id="Path_404" data-name="Path 404" d="M478.449,798.851a12.146,12.146,0,0,1,2.463-.29l.028-2.461-2.883-.032A11.114,11.114,0,0,0,478.449,798.851Z" transform="translate(-474.545 -789.126)" fill="#f47008"/>
        <path id="Path_405" data-name="Path 405" d="M483,820.98a3.171,3.171,0,0,0,1.85,1.768l.032-2.8a11.453,11.453,0,0,0-2.225.256,7,7,0,0,0,.343.773Z" transform="translate(-478.52 -809.78)" fill="#f47008"/>
        <path id="Path_406" data-name="Path 406" d="M516.411,824.411a7.3,7.3,0,0,0-1.551-.7,7.8,7.8,0,0,1-.43.925,4.863,4.863,0,0,1-1.351,1.615,6.767,6.767,0,0,0,3.331-1.845Z" transform="translate(-504.831 -813.034)" fill="#f47008"/>
        <path id="Path_407" data-name="Path 407" d="M506.207,821.079a7.078,7.078,0,0,0,.363-.771,11.455,11.455,0,0,0-2.221-.3l-.032,2.8A3.171,3.171,0,0,0,506.207,821.079Z" transform="translate(-497.254 -809.828)" fill="#f47008"/>
        <path id="Path_408" data-name="Path 408" d="M515.907,747.574a7.312,7.312,0,0,0,1.568-.661,6.764,6.764,0,0,0-3.289-1.92,4.861,4.861,0,0,1,1.313,1.645,7.819,7.819,0,0,1,.409.935Z" transform="translate(-505.788 -744.96)" fill="#f47008"/>
        <path id="Path_409" data-name="Path 409" d="M504.617,798.828a12.191,12.191,0,0,1,2.457.339,11.1,11.1,0,0,0,.453-2.767l-2.882-.032Z" transform="translate(-497.513 -789.386)" fill="#f47008"/>
        <path id="Path_410" data-name="Path 410" d="M483.3,749.037a11.464,11.464,0,0,0,2.218.306l.032-2.8a3.17,3.17,0,0,0-1.889,1.726,6.976,6.976,0,0,0-.361.766Z" transform="translate(-479.083 -746.302)" fill="#f47008"/>
        <path id="Path_411" data-name="Path 411" d="M507.379,770.637a12.166,12.166,0,0,1-2.465.284l-.028,2.46,2.883.032a11.108,11.108,0,0,0-.39-2.777Z" transform="translate(-497.746 -767.135)" fill="#f47008"/>
        <path id="Path_412" data-name="Path 412" d="M531.77,767.194a6.741,6.741,0,0,0-1.365-3.8l-.072.042a7.993,7.993,0,0,1-1.754.751,11.865,11.865,0,0,1,.414,2.971Z" transform="translate(-518.234 -760.876)" fill="#f47008"/>
        <path id="Path_413" data-name="Path 413" d="M469.107,825.79a4.857,4.857,0,0,1-1.313-1.645,7.819,7.819,0,0,1-.406-.928,7.263,7.263,0,0,0-1.561.664,6.76,6.76,0,0,0,3.28,1.909Z" transform="translate(-463.969 -812.604)" fill="#f47008"/>
        <path id="Path_414" data-name="Path 414" d="M505.159,749.407a11.453,11.453,0,0,0,2.228-.251,7.04,7.04,0,0,0-.345-.779,3.171,3.171,0,0,0-1.851-1.768Z" transform="translate(-497.982 -746.357)" fill="#f47008"/>
        <path id="Path_415" data-name="Path 415" d="M468.6,746.358a4.863,4.863,0,0,1,1.35-1.615,6.767,6.767,0,0,0-3.321,1.835,7.257,7.257,0,0,0,1.544.7,7.879,7.879,0,0,1,.427-.918Z" transform="translate(-464.662 -744.743)" fill="#f47008"/>
        <path id="Path_416" data-name="Path 416" d="M529.837,800.466a6.739,6.739,0,0,0,1.451-3.763l-2.776-.031a11.879,11.879,0,0,1-.482,2.962,7.974,7.974,0,0,1,1.737.789Z" transform="translate(-517.76 -789.648)" fill="#f47008"/>
        <path id="Path_417" data-name="Path 417" d="M455.413,763.277a7.918,7.918,0,0,1-1.741-.8l-.06-.038a6.741,6.741,0,0,0-1.459,3.774l2.776.031a11.883,11.883,0,0,1,.484-2.969Z" transform="translate(-452.144 -760.047)" fill="#f47008"/>
        <path id="Path_418" data-name="Path 418" d="M455.284,798.791a11.875,11.875,0,0,1-.416-2.979l-2.777-.031a6.739,6.739,0,0,0,1.374,3.806l.062-.037a7.909,7.909,0,0,1,1.758-.759Z" transform="translate(-452.09 -788.878)" fill="#f47008"/>
      </g>
      <path id="Path_419" data-name="Path 419" d="M380.881,664.211a8.157,8.157,0,1,1,.273-2.405,43.281,43.281,0,0,0,6.454-6.825,16.264,16.264,0,0,0-3.121-4.294,16.071,16.071,0,0,0-27.433,11.363,13.213,13.213,0,0,0,1.035,5.619l11.457,24.3a3.616,3.616,0,0,0,1.46,1.631,4.06,4.06,0,0,0,4.238,0,3.808,3.808,0,0,0,1.491-1.631l11.425-24.3a13.206,13.206,0,0,0,1.036-5.619,16.22,16.22,0,0,0-.849-5.3A51.361,51.361,0,0,1,380.881,664.211Z" transform="translate(-357.053 -645.978)" fill="#f47008"/>
    </g>
  </g>
</svg>
